<?xml version="1.0" encoding="utf-8"?>
<!-- Generator: Adobe Illustrator 16.0.0, SVG Export Plug-In . SVG Version: 6.00 Build 0)  -->
<!DOCTYPE svg PUBLIC "-//W3C//DTD SVG 1.1//EN" "http://www.w3.org/Graphics/SVG/1.1/DTD/svg11.dtd">
<svg version="1.1" id="Layer_1" xmlns="http://www.w3.org/2000/svg" xmlns:xlink="http://www.w3.org/1999/xlink" x="0px" y="0px"
	 width="1280px" height="228.582px" viewBox="0 0 1280 228.582" enable-background="new 0 0 1280 228.582" xml:space="preserve">
<g>
	<path fill="#FFFFFF" d="M1274.5,190.42c3.025,0,5.5,4.5,5.5,10V219c0,5.5-4.167,10-9.667,10H10c-5.5,0-10-4.5-10-10V86.34
		C0,80.84,4.5,76,10,76h45.018C60.518,76,65,80.84,65,86.34v4.12c0,5.5,4.518,9.54,10.018,9.54h44.016c5.5,0,9.966,4.96,9.966,10.46
		v20.8c0,5.5,3.374,10,7.5,10s7.5-4.5,7.5-10v-20.8c0-5.5,4.54-10.46,10.04-10.46h34.016c5.5,0,9.944,4.96,9.944,10.46v20.8
		c0,5.5,2.475,10,5.5,10s5.5-4.5,5.5-10V81.7c0-5.5,4.558-9.7,10.058-9.7h109.035c5.5,0,9.908,4.2,9.908,9.7v8.76
		c0,5.5,4.592,9.54,10.092,9.54h33.005c5.5,0,9.903,4.96,9.903,10.46v45.85c0,5.5,4.597,9.69,10.097,9.69h24.016
		c5.5,0,9.887-4.19,9.887-9.69V93.76c0-5.5,4.613-9.76,10.113-9.76h44.016c5.5,0,9.871-4.74,9.871-10.24V41.82
		c0-5.5,4.629-9.82,10.129-9.82h110.036c5.5,0,9.835,4.32,9.835,9.82V61.7c0,5.5,4.665,10.3,10.165,10.3h44.017
		c5.5,0,9.818,4.2,9.818,9.7v8.76c0,5.5,4.682,9.54,10.182,9.54h45.018c5.5,0,9.801,4.96,9.801,10.46v10.6
		c0,5.5,4.699,9.94,10.199,9.94h16.008c5.5,0,9.793-4.44,9.793-9.94v-10.6c0-5.5,4.707-10.46,10.207-10.46h109.034
		c5.5,0,9.759,4.96,9.759,10.46v20.8c0,5.5,4.741,9.74,10.241,9.74h24.016c5.5,0,9.743-4.24,9.743-9.74v-31.01
		c0-5.5,4.757-10.25,10.257-10.25h54.018c5.5,0,9.726-4.25,9.726-9.75V20.49c0-5.5,4.774-10.49,10.274-10.49h109.034
		c5.5,0,9.691,4.99,9.691,10.49v30.08c0,5.5,4.809,10.43,10.309,10.43h79.022c5.5,0,9.669,4.07,9.669,9.57v109.85
		C1269,185.92,1271.475,190.42,1274.5,190.42z"/>
</g>
</svg>
