<?xml version="1.0" encoding="utf-8"?>
<!-- Generator: Adobe Illustrator 16.0.0, SVG Export Plug-In . SVG Version: 6.00 Build 0)  -->
<!DOCTYPE svg PUBLIC "-//W3C//DTD SVG 1.1//EN" "http://www.w3.org/Graphics/SVG/1.1/DTD/svg11.dtd">
<svg version="1.1" id="Layer_1" xmlns="http://www.w3.org/2000/svg" xmlns:xlink="http://www.w3.org/1999/xlink" x="0px" y="0px"
	 width="107.705px" height="49.079px" viewBox="0 0 107.705 49.079" enable-background="new 0 0 107.705 49.079"
	 xml:space="preserve">
<g>
	<g>
		<path fill="#161730" d="M50.358,18.849c-0.251-0.217-0.646-0.327-1.192-0.327c-0.544,0-0.937,0.107-1.182,0.32
			c-0.243,0.217-0.367,0.544-0.367,0.982c0,0.855,0.519,1.285,1.549,1.285c1.043,0,1.563-0.43,1.563-1.285
			C50.728,19.394,50.604,19.071,50.358,18.849z M47.693,21.931v8.479h2.924v-8.479H47.693z"/>
		<path fill="#161730" d="M59.321,22.591c-0.596-0.536-1.435-0.809-2.524-0.809c-1.507,0-2.754,0.256-3.741,0.767l0.846,1.928
			c0.954-0.418,1.737-0.63,2.354-0.63c0.689,0,1.035,0.349,1.035,1.046v0.124l-1.414,0.042c-1.192,0.057-2.103,0.303-2.732,0.745
			c-0.625,0.442-0.94,1.115-0.94,2.019c0,0.868,0.229,1.54,0.685,2.017c0.459,0.481,1.09,0.72,1.886,0.72
			c0.651,0,1.179-0.09,1.587-0.269c0.409-0.18,0.813-0.515,1.205-1.005h0.06l0.562,1.125h2.025v-5.56
			C60.215,23.885,59.917,23.132,59.321,22.591z M58.645,29.191l-1.771-0.986l-0.813-0.451l0.114,0.731l0.209,1.303l-2.49-3.618
			l4.371,0.435l-0.957,0.345l-1.06,0.378l0.928,0.521l1.689,0.944L58.645,29.191z"/>
		<path fill="#161730" d="M74.823,22.553c-0.481-0.512-1.222-0.771-2.222-0.771c-0.516,0-0.988,0.098-1.414,0.298
			c-0.425,0.196-0.757,0.469-0.996,0.816h-0.234c-0.494-0.74-1.354-1.114-2.576-1.114c-0.54,0-1.025,0.103-1.455,0.307
			c-0.426,0.203-0.749,0.502-0.975,0.89h-0.17l-0.366-1.048h-2.209v8.479h2.925v-3.712c0-0.929,0.105-1.596,0.314-2.005
			c0.208-0.409,0.545-0.613,1.004-0.613c0.333,0,0.575,0.146,0.724,0.431c0.148,0.285,0.225,0.714,0.225,1.288v4.611h2.932v-3.95
			c0-0.818,0.107-1.422,0.316-1.805c0.208-0.383,0.536-0.575,0.987-0.575c0.336,0,0.587,0.146,0.745,0.431
			c0.158,0.285,0.234,0.714,0.234,1.288v4.611h2.924v-5.518C75.537,23.847,75.299,23.067,74.823,22.553z"/>
		<path fill="#161730" d="M82.415,18.769v2.265c0,0.663,0.047,1.327,0.141,1.992h-0.059c-0.295-0.447-0.619-0.768-0.976-0.958
			c-0.358-0.188-0.774-0.285-1.247-0.285c-0.966,0-1.728,0.392-2.281,1.166c-0.554,0.778-0.831,1.856-0.831,3.235
			c0,0.893,0.124,1.672,0.371,2.341c0.247,0.667,0.596,1.174,1.047,1.518c0.451,0.347,0.979,0.517,1.583,0.517
			c0.996,0,1.746-0.404,2.252-1.218h0.111l0.629,1.069h2.205V18.769H82.415z M82.662,26.442c-0.017,0.612-0.12,1.068-0.312,1.363
			c-0.191,0.293-0.522,0.441-0.992,0.441c-0.399,0-0.706-0.17-0.918-0.515c-0.217-0.345-0.324-0.847-0.324-1.507
			c0-0.668,0.107-1.184,0.32-1.545c0.212-0.363,0.51-0.541,0.894-0.541c0.459,0,0.796,0.158,1.008,0.477
			c0.218,0.315,0.324,0.848,0.324,1.596V26.442z"/>
		<path fill="#161730" d="M95.2,25.66c0-1.252-0.348-2.214-1.043-2.879c-0.696-0.667-1.684-0.999-2.961-0.999
			c-1.34,0-2.371,0.383-3.094,1.149c-0.725,0.767-1.086,1.864-1.086,3.294c0,1.387,0.393,2.456,1.17,3.21
			c0.779,0.748,1.877,1.123,3.291,1.123c0.676,0,1.259-0.043,1.748-0.132c0.489-0.094,0.963-0.256,1.422-0.489v-2.104
			c-0.506,0.235-0.969,0.4-1.404,0.498c-0.43,0.099-0.902,0.146-1.417,0.146c-0.562,0-1.009-0.132-1.336-0.4
			c-0.324-0.271-0.499-0.644-0.521-1.114h5.23V25.66z M90.03,25.119c0.042-0.464,0.178-0.805,0.408-1.021
			c0.234-0.217,0.52-0.323,0.863-0.323c0.373,0,0.674,0.123,0.894,0.365c0.222,0.243,0.342,0.571,0.35,0.979H90.03z"/>
		<path fill="#161730" d="M104.429,23.838c-0.345-0.664-0.84-1.17-1.479-1.523c-0.637-0.354-1.374-0.532-2.209-0.532
			c-1.344,0-2.391,0.383-3.136,1.149c-0.744,0.767-1.119,1.838-1.119,3.221c0,1.35,0.384,2.423,1.14,3.218
			c0.764,0.792,1.789,1.188,3.074,1.188c1.341,0,2.383-0.388,3.133-1.162c0.744-0.774,1.115-1.855,1.115-3.244
			C104.948,25.268,104.778,24.497,104.429,23.838z M101.692,27.817c-0.188,0.383-0.508,0.569-0.963,0.569
			c-0.459,0-0.787-0.187-0.979-0.569c-0.197-0.384-0.295-0.937-0.295-1.665c0-0.728,0.098-1.276,0.295-1.642
			c0.191-0.366,0.516-0.55,0.962-0.55c0.459,0,0.783,0.184,0.975,0.554c0.188,0.37,0.284,0.915,0.284,1.638
			C101.972,26.881,101.878,27.434,101.692,27.817z"/>
	</g>
	<polygon fill="#161730" points="22.62,47.17 4.302,33.639 6.86,11.01 27.737,1.91 46.057,15.44 43.498,38.071 	"/>
	<g>
		<path fill="#EFDD3C" stroke="#EFDD3C" stroke-miterlimit="10" d="M41.876,29.309c-4.958,8.317-15.377,13.427-21.082,11.818
			c5.275,1.382,15.022-3.69,19.805-11.716c5.089-8.536,3.384-17.798-2.33-19.54c-3.627-1.108-8.825,0.123-13.083,3.98
			c-0.246,0.221-0.486,0.451-0.723,0.688c-0.123-0.368-0.315-0.674-0.579-0.894c-0.102-0.086-0.216-0.16-0.34-0.219
			c-1.532-0.73-4.13,0.949-5.8,3.752c-1.313,2.202-1.664,4.441-1.011,5.652c-2.657-2.513-0.162-5.616,0.53-6.775
			c1.832-3.072,4.805-4.852,6.642-3.977c0.351,0.168,0.635,0.42,0.851,0.739c4.504-4.026,10.131-5.234,14.097-3.993
			C45.054,10.77,47.134,20.49,41.876,29.309z"/>
		<path fill="#EFDD3C" stroke="#EFDD3C" stroke-miterlimit="10" d="M28.57,16.697c-1.083,2.123-2.296,4.779-3.497,8.12
			c-3.596,10.002-4.07,20.205-10.149,19.479c-3.471-0.416-5.371-8.952-5.388-15.628c-0.002-0.591,0.01-1.167,0.041-1.72
			c0.02-0.439,0.054-0.867,0.094-1.276c-0.058-2.02-1.146-3.605-2.757-3.781c-1.631-0.177-3.287,1.146-4.083,3.111
			c0.536-2.576,2.701-4.456,4.881-4.22c1.124,0.122,2.035,0.783,2.591,1.753c0.082-0.234,0.174-0.447,0.271-0.642
			c4.226-6.746,6.973-10.518,9.093-12.566c-2.348,3.123-5.165,7.685-8.057,13.231c-0.329,0.65-0.564,1.582-0.714,2.691
			c-0.011,0.195-0.034,0.396-0.067,0.595c-0.595,5.873,1.019,15.746,4.456,16.158c5.201,0.624,5.626-8.234,8.723-16.921
			C25.401,21.656,27.031,18.909,28.57,16.697z"/>
		<g>
			<path fill="#EFDD3C" d="M11.318,14.524c-0.2,0.51,1.031,1.844,1.031,1.844l0.404-2.401l0.013-0.079
				C12.766,13.888,11.455,14.176,11.318,14.524z"/>
			<path fill="#EFDD3C" d="M11.318,14.524c-0.042,0.18,0.026,0.357,0.119,0.509c0.094,0.152,0.213,0.29,0.346,0.412
				c0.261,0.248,0.577,0.455,0.854,0.657l-0.675,0.201c-0.041-0.857,0.167-1.673,0.546-2.458l0.313,0.298
				c-0.264-0.013-0.54-0.005-0.804,0.038C11.761,14.231,11.476,14.299,11.318,14.524z M11.318,14.524
				c0.042-0.049,0.071-0.119,0.128-0.156c0.055-0.038,0.108-0.083,0.167-0.117c0.117-0.068,0.231-0.148,0.355-0.208
				c0.241-0.139,0.482-0.277,0.742-0.411l0.262-0.135l0.051,0.433c0.102,0.868,0.031,1.706-0.288,2.502l-0.314,0.786l-0.36-0.585
				c-0.207-0.335-0.346-0.693-0.492-1.044c-0.065-0.179-0.141-0.349-0.196-0.527C11.326,14.888,11.251,14.7,11.318,14.524z"/>
		</g>
	</g>
</g>
</svg>
