<?xml version="1.0" encoding="utf-8"?>
<!-- Generator: Adobe Illustrator 16.0.0, SVG Export Plug-In . SVG Version: 6.00 Build 0)  -->
<!DOCTYPE svg PUBLIC "-//W3C//DTD SVG 1.1//EN" "http://www.w3.org/Graphics/SVG/1.1/DTD/svg11.dtd">
<svg version="1.1" id="Layer_1" xmlns="http://www.w3.org/2000/svg" xmlns:xlink="http://www.w3.org/1999/xlink" x="0px" y="0px"
	 width="1200px" height="1200px" viewBox="0 0 1200 1200" enable-background="new 0 0 1200 1200" xml:space="preserve">
<g>
	<g>
		<g>
			<rect x="434" y="1072" fill="#E6E6E6" width="448" height="26"/>
			<g>
				<path fill="#CCCCCC" d="M891.963,1072H671V727h58.894C729.894,727,747.523,938,891.963,1072z"/>
				<path fill="#CCCCCC" d="M450.426,1072H671V727h-58.529C612.471,727,594.858,938,450.426,1072z"/>
			</g>
			<path fill="#000043" d="M1186,154.709V819H130V154.709C130,125.713,149.15,102,168.132,102h1004.749
				C1191.863,102,1186,125.713,1186,154.709z"/>
			<rect x="165" y="144" fill="#F2F2F2" width="996" height="633"/>
			<path fill="#E6E6E6" d="M1186,819v22.682c0,28.987,5.17,54.318-13.82,54.318H167.439C148.458,896,130,870.669,130,841.682V819
				H1186z"/>
		</g>
		<g>
			<rect x="206" y="162" fill="#FFFFFF" width="921" height="556"/>
			<g>
				<rect x="840" y="186" fill="#22B573" width="76" height="9"/>
				<rect x="924" y="186" fill="#FFFF00" width="67" height="9"/>
				<rect x="1016" y="186" fill="#0071BC" width="52" height="9"/>
				<rect x="671" y="179" fill="#00FF00" width="67" height="16"/>
				<rect x="747" y="186" fill="#BDCCD4" width="76" height="9"/>
			</g>
			<rect x="223" y="179" fill="#3FA9F5" width="94" height="24"/>
			<g>
				<rect x="755" y="254" fill="#FFFFFF" width="212" height="42"/>
				<rect x="755" y="312" fill="#666666" width="279" height="9"/>
				<rect x="755" y="346" fill="#666666" width="279" height="9"/>
				<rect x="755" y="371" fill="#666666" width="279" height="17"/>
				<rect x="755" y="414" fill="#666666" width="144" height="26"/>
				<rect x="755" y="456" fill="#FFFFFF" width="102" height="17"/>
			</g>
			<g>
				<rect x="747" y="482" fill="#FFFFFF" width="212" height="16"/>
				<rect x="747" y="515" fill="#666666" width="269" height="8"/>
				<rect x="747" y="558" fill="#666666" width="269" height="17"/>
				<rect x="747" y="592" fill="#666666" width="269" height="16"/>
				<rect x="747" y="625" fill="#666666" width="135" height="17"/>
				<rect x="747" y="659" fill="#FFFFFF" width="100" height="33"/>
			</g>
			<g>
				<rect x="282" y="312" fill="#3FA9F5" width="423" height="406"/>
				<g>
					<rect x="308" y="364" fill="#FFFFFF" width="278" height="50"/>
					<rect x="308" y="440" fill="#666666" width="363" height="8"/>
					<rect x="308" y="482" fill="#666666" width="363" height="8"/>
					<rect x="308" y="523" fill="#666666" width="363" height="17"/>
					<rect x="308" y="582" fill="#666666" width="186" height="17"/>
					<rect x="308" y="616" fill="#FFFFFF" width="126" height="26"/>
				</g>
			</g>
		</g>
	</g>
	<g>
		<g>
			<path fill="#000043" d="M292,1064.346c0,17.859-13.542,33.654-31.031,33.654H44.552C27.071,1098,13,1082.205,13,1064.346V686.833
				C13,668.955,27.071,651,44.552,651h216.417c17.49,0,31.031,17.955,31.031,35.833V1064.346z"/>
			<rect x="30" y="685" fill="#F2F2F2" width="236" height="336"/>
			<path fill="#FFFFFF" d="M168.799,1063.126c0,9.742-7.904,17.629-17.638,17.629c-9.742,0-17.637-7.887-17.637-17.629
				c0-9.743,7.896-17.646,17.637-17.646C160.895,1045.48,168.799,1053.383,168.799,1063.126z"/>
			<path fill="#000043" d="M167.019,1063.126c0,8.771-7.097,15.865-15.858,15.865c-8.752,0-15.866-7.095-15.866-15.865
				s7.114-15.865,15.866-15.865C159.922,1047.261,167.019,1054.355,167.019,1063.126z"/>
			<path fill="#FFFFFF" d="M162.387,1063.126c0,6.197-5.02,11.225-11.226,11.225c-6.206,0-11.217-5.027-11.217-11.225
				c0-6.206,5.012-11.226,11.217-11.226C157.368,1051.9,162.387,1056.92,162.387,1063.126z"/>
			<rect x="97" y="668" fill="#FFFFFF" width="85" height="7"/>
		</g>
		<g opacity="0.7">
			<rect x="42.5" y="772.5" fill="none" stroke="#000000" stroke-miterlimit="10" width="194" height="110"/>
			<line fill="none" stroke="#000000" stroke-miterlimit="10" x1="51.755" y1="777.882" x2="248.004" y2="886.708"/>
			<line fill="none" stroke="#000000" stroke-miterlimit="10" x1="248.004" y1="777.882" x2="51.755" y2="886.708"/>
		</g>
		<g>
			<rect x="38" y="744" fill="#22B573" width="59" height="7"/>
			<rect x="105" y="744" fill="#FFFF00" width="67" height="7"/>
			<rect x="182" y="744" fill="#0071BC" width="59" height="7"/>
		</g>
		<rect x="38" y="702" fill="#3FA9F5" width="92" height="42"/>
		<g>
			<g>
				<rect x="38" y="912" fill="#FF1D25" width="203" height="26"/>
				<text transform="matrix(1.0812 0 0 1 63.3774 926.3613)" font-family="'MyriadPro-Regular'" font-size="10.5594">Menu</text>
			</g>
			<g>
				<rect x="38" y="954" fill="#FFFF00" width="203" height="17"/>
				<text transform="matrix(1.0812 0 0 1 63.3774 959.8066)" font-family="'MyriadPro-Regular'" font-size="10.5594">Menu</text>
			</g>
			<g>
				<rect x="38" y="979" fill="#FF00FF" width="203" height="17"/>
				<text transform="matrix(1.0812 0 0 1 63.3774 991.4863)" font-family="'MyriadPro-Regular'" font-size="10.5594">Menu</text>
			</g>
		</g>
	</g>
</g>
</svg>
