<?xml version="1.0" encoding="utf-8"?>
<!-- Generator: Adobe Illustrator 16.0.0, SVG Export Plug-In . SVG Version: 6.00 Build 0)  -->
<!DOCTYPE svg PUBLIC "-//W3C//DTD SVG 1.1//EN" "http://www.w3.org/Graphics/SVG/1.1/DTD/svg11.dtd">
<svg version="1.1" id="Layer_1" xmlns="http://www.w3.org/2000/svg" xmlns:xlink="http://www.w3.org/1999/xlink" x="0px" y="0px"
	 width="1200px" height="1200px" viewBox="0 0 1200 1200" enable-background="new 0 0 1200 1200" xml:space="preserve">
<g>
	<g>
		<path fill="#161730" d="M817.496,557.276c-6.24,6.206-17.64,5.4-25.2-2.143l-85.404-85.242
			c-7.543-7.526-8.365-18.934-2.135-25.157l0,0c6.24-6.205,17.648-5.383,25.2,2.16l85.396,85.225
			C822.904,539.662,823.728,551.062,817.496,557.276L817.496,557.276z"/>
		<g>
			<path fill="#161730" d="M670.95,621.922c1.556,1.556,4.104,1.557,5.66,0.003l30.999-30.933c1.557-1.554,1.557-4.097-0.001-5.65
				l-30.979-30.906c-1.558-1.554-4.105-1.553-5.662,0.001l-30.973,30.929c-1.557,1.555-1.557,4.099-0.001,5.654l5.596,5.591
				c1.556,1.555,1.556,4.099-0.002,5.653L532.463,715.188c-1.557,1.555-2.354,1.091-1.77-1.03l46.966-170.683
				c0.583-2.121,2.667-4.67,4.629-5.664l126.46-64.072c1.963-0.994,5.172-2.626,7.131-3.626l6.762-3.452
				c1.959-1,5.021-0.764,6.805,0.525l33.158,23.967c1.783,1.289,3.523,2.538,3.867,2.776c0.345,0.238,0.832,0.722,1.084,1.076
				c0.253,0.354,1.516,2.1,2.807,3.881l23.967,33.054c1.291,1.781,1.533,4.843,0.537,6.805l-3.433,6.761
				c-0.996,1.962-2.627,5.171-3.624,7.132l-64.189,126.213c-0.997,1.961-3.55,4.041-5.671,4.623l-177.02,48.541
				c-2.122,0.582-2.583-0.214-1.026-1.769l116.964-116.746c1.557-1.555,4.104-1.554,5.66,0.002L670.95,621.922z"/>
		</g>
	</g>
	<path fill="#FF931E" d="M731.816,448.746c0,0,313.926-421.196,423.484-353.045c109.533,68.15-62.597,197.826-338.499,437.867
		C731.816,448.746,731.816,448.746,731.816,448.746z"/>
	<path opacity="0.1" d="M1137.473,117.961c-99.162-61.705-384.057,324.733-384.057,324.733s-7.68-7.671,33.823,33.754
		l359.73-359.053C1146.679,117.687,1140.31,119.727,1137.473,117.961z"/>
	<g>
		<g>
			<path fill="none" stroke="#161730" stroke-width="3" stroke-miterlimit="10" d="M126.213,1091.484
				c53.673-184.694,224.44-319.771,426.827-319.771c202.374,0,373.141,135.051,426.822,319.771"/>
			<rect x="104.5" y="1076.5" fill="#FFFFFF" stroke="#161730" stroke-width="3" stroke-miterlimit="10" width="26" height="36"/>
			<polygon fill="#FFFFFF" stroke="#161730" stroke-width="3" stroke-miterlimit="10" points="990.5,1112.5 960.689,1112.5 
				960.723,1076.5 990.5,1076.5 			"/>
		</g>
		<g>
			
				<line fill="#FFFFFF" stroke="#161730" stroke-width="3" stroke-miterlimit="10" x1="12.386" y1="773.677" x2="1093.569" y2="773.643"/>
			<path fill="#FFFFFF" stroke="#161730" stroke-width="3" stroke-miterlimit="10" d="M47.614,769.829
				c0.035,10.02-8.083,18.128-18.12,18.111c-10.037,0.017-18.154-8.092-18.188-18.096c0.035-10.02,8.151-18.153,18.188-18.153
				C39.514,751.691,47.614,759.825,47.614,769.829z"/>
		</g>
		<path fill="#FFFFFF" stroke="#161730" stroke-width="3" stroke-miterlimit="10" d="M1094.65,769.829
			c0,9.984-8.125,18.111-18.153,18.128c-10.038-0.017-18.154-8.144-18.154-18.163c-0.019-9.978,8.099-18.103,18.118-18.103
			C1086.525,751.691,1094.65,759.816,1094.65,769.829z"/>
		<rect x="524.5" y="752.5" fill="#FFFFFF" stroke="#161730" stroke-width="3" stroke-miterlimit="10" width="45" height="35"/>
	</g>
</g>
</svg>
